<svg width="11" height="11" viewBox="0 0 11 11" fill="none" xmlns="http://www.w3.org/2000/svg">
<path d="M0.812841 0.818995C0.363883 1.26795 0.46 2.09184 1.02754 2.65938L8.33523 9.96706C8.90277 10.5346 9.72665 10.6307 10.1756 10.1818C10.6246 9.73281 10.5285 8.90892 9.96091 8.34138L2.65323 1.0337C2.08568 0.466153 1.2618 0.370038 0.812841 0.818995Z" fill="#000000"/>
<path d="M10.18 0.812841C9.73107 0.363883 8.90924 0.457945 8.34423 1.02296L1.06918 8.29801C0.504171 8.86302 0.410108 9.68485 0.859065 10.1338C1.30802 10.5828 2.12985 10.4887 2.69486 9.92369L9.96991 2.64864C10.5349 2.08363 10.629 1.2618 10.18 0.812841Z" fill="#000000"/>
</svg>
