<svg width="24" height="24" viewBox="0 0 24 24" fill="none" xmlns="http://www.w3.org/2000/svg">
<path fill-rule="evenodd" clip-rule="evenodd" d="M22.8493 3.15128C23.3179 3.61991 23.3179 4.3797 22.8493 4.84833L12.8493 14.8483C12.3807 15.317 11.6209 15.317 11.1523 14.8483L8.15225 11.8483C7.68362 11.3797 7.68362 10.6199 8.15225 10.1513C8.62088 9.68265 9.38068 9.68265 9.84931 10.1513L12.0008 12.3027L21.1523 3.15128C21.6209 2.68265 22.3807 2.68265 22.8493 3.15128Z" fill="#0566A8"/>
<path fill-rule="evenodd" clip-rule="evenodd" d="M5.00078 4.1998C4.78861 4.1998 4.58512 4.28409 4.4351 4.43412C4.28507 4.58415 4.20078 4.78763 4.20078 4.9998V18.9998C4.20078 19.212 4.28507 19.4155 4.4351 19.5655C4.58512 19.7155 4.78861 19.7998 5.00078 19.7998H19.0008C19.213 19.7998 19.4164 19.7155 19.5665 19.5655C19.7165 19.4155 19.8008 19.212 19.8008 18.9998V11.9998C19.8008 11.3371 20.338 10.7998 21.0008 10.7998C21.6635 10.7998 22.2008 11.3371 22.2008 11.9998V18.9998C22.2008 19.8485 21.8636 20.6624 21.2635 21.2625C20.6634 21.8627 19.8495 22.1998 19.0008 22.1998H5.00078C4.15209 22.1998 3.33816 21.8627 2.73804 21.2625C2.13792 20.6624 1.80078 19.8485 1.80078 18.9998V4.9998C1.80078 4.15111 2.13792 3.33718 2.73804 2.73706C3.33816 2.13695 4.15209 1.7998 5.00078 1.7998H16.0008C16.6635 1.7998 17.2008 2.33706 17.2008 2.9998C17.2008 3.66255 16.6635 4.1998 16.0008 4.1998H5.00078Z" fill="#0566A8"/>
</svg>
