<svg width="29" height="28" viewBox="0 0 29 28" fill="none" xmlns="http://www.w3.org/2000/svg">
<path d="M24.4009 4.10259C18.9651 -1.36726 10.1663 -1.3678 4.7294 4.10259C-0.706402 9.57244 -0.706946 18.4264 4.7294 23.8973C10.1652 29.3671 18.964 29.3682 24.4009 23.8973C29.8367 18.4274 29.8372 9.57353 24.4009 4.10259ZM14.5651 25.6976C8.15544 25.6976 2.94029 20.4503 2.94029 13.9999C2.94029 7.54955 8.15544 2.30228 14.5651 2.30228C20.9748 2.30228 26.19 7.55009 26.19 13.9999C26.19 20.4498 20.9748 25.6976 14.5651 25.6976Z" fill="#B2B2B2"/>
<path d="M9.90739 9.36392C9.46123 9.81287 9.55675 10.6368 10.1208 11.2043L17.383 18.512C17.947 19.0795 18.7657 19.1756 19.2119 18.7267C19.658 18.2777 19.5625 17.4538 18.9985 16.8863L11.7363 9.57862C11.1723 9.01107 10.3536 8.91496 9.90739 9.36392Z" fill="#B2B2B2"/>
<path d="M19.216 9.35776C18.7698 8.90881 17.9531 9.00287 17.3916 9.56788L10.1618 16.8429C9.60035 17.4079 9.50688 18.2298 9.95304 18.6787C10.3992 19.1277 11.2159 19.0336 11.7774 18.4686L19.0072 11.1936C19.5687 10.6285 19.6621 9.80672 19.216 9.35776Z" fill="#B2B2B2"/>
</svg>
