<svg width="20" height="20" viewBox="0 0 20 20" fill="none" xmlns="http://www.w3.org/2000/svg">
<path d="M17.2724 19.9999H9.09055C7.59055 19.9999 6.36328 18.7726 6.36328 17.2726V9.0908C6.36328 7.5908 7.59055 6.36353 9.09055 6.36353H17.2724C18.7724 6.36353 19.9996 7.5908 19.9996 9.0908V17.2726C19.9996 18.7726 18.7724 19.9999 17.2724 19.9999ZM9.09055 8.18171C8.59055 8.18171 8.18146 8.5908 8.18146 9.0908V17.2726C8.18146 17.7726 8.59055 18.1817 9.09055 18.1817H17.2724C17.7724 18.1817 18.1815 17.7726 18.1815 17.2726V9.0908C18.1815 8.5908 17.7724 8.18171 17.2724 8.18171H9.09055Z" fill="#000000"/>
<path d="M3.63636 13.6364H2.72727C1.22727 13.6364 0 12.4091 0 10.9091V2.72727C0 1.22727 1.22727 0 2.72727 0H10.9091C12.4091 0 13.6364 1.22727 13.6364 2.72727V3.63636C13.6364 4.13636 13.2273 4.54545 12.7273 4.54545C12.2273 4.54545 11.8182 4.13636 11.8182 3.63636V2.72727C11.8182 2.22727 11.4091 1.81818 10.9091 1.81818H2.72727C2.22727 1.81818 1.81818 2.22727 1.81818 2.72727V10.9091C1.81818 11.4091 2.22727 11.8182 2.72727 11.8182H3.63636C4.13636 11.8182 4.54545 12.2273 4.54545 12.7273C4.54545 13.2273 4.13636 13.6364 3.63636 13.6364Z" fill="#000000"/>
</svg>
