<svg width="22" height="20" viewBox="0 0 22 20" fill="none" xmlns="http://www.w3.org/2000/svg">
<path d="M19 20H3C1.35 20 0 18.65 0 17V3C0 1.35 1.35 0 3 0H8C8.33 0 8.65 0.17 8.83 0.45L10.54 3H19C20.65 3 22 4.35 22 6V17C22 18.65 20.65 20 19 20ZM3 2C2.45 2 2 2.45 2 3V17C2 17.55 2.45 18 3 18H19C19.55 18 20 17.55 20 17V6C20 5.45 19.55 5 19 5H10C9.67 5 9.35 4.83 9.17 4.55L7.46 2H3Z" fill="#007BFF"/>
<path d="M11 16C10.45 16 10 15.55 10 15V9C10 8.45 10.45 8 11 8C11.55 8 12 8.45 12 9V15C12 15.55 11.55 16 11 16Z" fill="#007BFF"/>
<path d="M14 13H8C7.45 13 7 12.55 7 12C7 11.45 7.45 11 8 11H14C14.55 11 15 11.45 15 12C15 12.55 14.55 13 14 13Z" fill="#007BFF"/>
</svg>
