<svg width="17" height="18" viewBox="0 0 17 18" fill="none" xmlns="http://www.w3.org/2000/svg">
<path fill-rule="evenodd" clip-rule="evenodd" d="M3.5 1.75C2.5335 1.75 1.75 2.5335 1.75 3.5C1.75 4.4665 2.5335 5.25 3.5 5.25C4.4665 5.25 5.25 4.4665 5.25 3.5C5.25 2.5335 4.4665 1.75 3.5 1.75ZM0 3.5C0 1.567 1.567 0 3.5 0C5.433 0 7 1.567 7 3.5C7 5.433 5.433 7 3.5 7C1.567 7 0 5.433 0 3.5Z" fill="#000000"/>
<path fill-rule="evenodd" clip-rule="evenodd" d="M3.5 12.75C2.5335 12.75 1.75 13.5335 1.75 14.5C1.75 15.4665 2.5335 16.25 3.5 16.25C4.4665 16.25 5.25 15.4665 5.25 14.5C5.25 13.5335 4.4665 12.75 3.5 12.75ZM0 14.5C0 12.567 1.567 11 3.5 11C5.433 11 7 12.567 7 14.5C7 16.433 5.433 18 3.5 18C1.567 18 0 16.433 0 14.5Z" fill="#000000"/>
<path fill-rule="evenodd" clip-rule="evenodd" d="M16.7468 1.25322C17.0844 1.59085 17.0844 2.13826 16.7468 2.47588L6.47588 12.7468C6.13826 13.0844 5.59085 13.0844 5.25322 12.7468C4.91559 12.4091 4.91559 11.8617 5.25322 11.5241L15.5241 1.25322C15.8617 0.915593 16.4091 0.915593 16.7468 1.25322Z" fill="#000000"/>
<path fill-rule="evenodd" clip-rule="evenodd" d="M10.2717 10.2732C10.6344 9.90939 11.223 9.90885 11.5864 10.272L16.7271 15.4103C17.0905 15.7735 17.091 16.3629 16.7283 16.7268C16.3656 17.0906 15.777 17.0911 15.4136 16.728L10.2729 11.5897C9.90951 11.2265 9.90897 10.6371 10.2717 10.2732Z" fill="#000000"/>
<path fill-rule="evenodd" clip-rule="evenodd" d="M5.24906 5.24906C5.58114 4.91698 6.11954 4.91698 6.45162 5.24906L9.75094 8.54838C10.083 8.88046 10.083 9.41886 9.75094 9.75094C9.41886 10.083 8.88046 10.083 8.54838 9.75094L5.24906 6.45162C4.91698 6.11954 4.91698 5.58114 5.24906 5.24906Z" fill="#000000"/>
</svg>
