<svg width="18" height="21" viewBox="0 0 18 21" fill="none" xmlns="http://www.w3.org/2000/svg">
<g clip-path="url(#clip0)">
<path d="M10.7736 17.0692H11.7363C12 17.0692 12.2242 16.8538 12.2242 16.5712V7.71346C12.2242 7.44423 12.0132 7.21538 11.7363 7.21538H10.7736C10.5099 7.21538 10.2857 7.43077 10.2857 7.71346V16.5712C10.2857 16.8404 10.5099 17.0692 10.7736 17.0692ZM17.3538 3.28462H14.044L12.6857 0.955769C12.3297 0.363462 11.7099 0 11.0242 0H6.97582C6.3033 0 5.67033 0.363462 5.32747 0.955769L3.95604 3.28462H0.646154C0.29011 3.28462 0 3.58077 0 3.94423V4.60385C0 4.95385 0.29011 5.25 0.646154 5.25H1.29231V19.0346C1.29231 20.125 2.14945 21 3.21758 21H14.7956C15.8637 21 16.7209 20.125 16.7209 19.0346V5.25H17.367C17.7231 5.25 18.0132 4.95385 18.0132 4.59038V3.94423C18 3.58077 17.7099 3.28462 17.3538 3.28462ZM6.90989 2.08654C6.94945 2.01923 7.02857 1.96538 7.10769 1.96538H10.8791C10.9582 1.96538 11.0374 2.00577 11.0901 2.08654L11.789 3.28462H6.1978L6.90989 2.08654ZM14.7824 19.0346H3.21758V5.25H14.7956V19.0346H14.7824ZM6.26374 17.0692H7.22637C7.49011 17.0692 7.71429 16.8538 7.71429 16.5712V7.71346C7.71429 7.44423 7.5033 7.21538 7.22637 7.21538H6.26374C6 7.21538 5.77582 7.43077 5.77582 7.71346V16.5712C5.78901 16.8404 6 17.0692 6.26374 17.0692Z" fill="#007BFF"/>
</g>
<defs>
<clipPath id="clip0">
<rect width="18" height="21" fill="white"/>
</clipPath>
</defs>
</svg>
