<svg width="25" height="21" viewBox="0 0 25 21" fill="none" xmlns="http://www.w3.org/2000/svg">
<path d="M12.0022 20.0039C11.7425 20.0039 11.4927 19.904 11.2928 19.7141L7.29616 15.7161C6.90649 15.3262 6.90649 14.6966 7.29616 14.3068C7.68584 13.917 8.31531 13.917 8.70499 14.3068L11.9922 17.5951L15.2795 14.3068C15.6692 13.917 16.2987 13.917 16.6883 14.3068C17.078 14.6966 17.078 15.3262 16.6883 15.7161L12.6917 19.7141C12.5118 19.914 12.262 20.0039 12.0022 20.0039Z" fill="#000000"/>
<path d="M12.0021 20.004C11.4526 20.004 11.0029 19.5542 11.0029 19.0045V10.009C11.0029 9.4593 11.4526 9.00952 12.0021 9.00952C12.5516 9.00952 13.0013 9.4593 13.0013 10.009V19.0045C13.0013 19.5542 12.5516 20.004 12.0021 20.004Z" fill="#000000"/>
<path d="M20.8745 17.0954C20.5648 17.0954 20.2551 16.9455 20.0552 16.6756C19.7355 16.2258 19.8454 15.5962 20.295 15.2863C22.0935 14.0169 22.5332 11.5182 21.2642 9.71909C20.5148 8.65962 19.2959 8.01994 17.9969 8.01994H16.738C16.2784 8.01994 15.8887 7.7101 15.7688 7.27032C15.3092 5.46122 14.1601 3.94198 12.5515 2.99245C10.9428 2.04293 9.06438 1.77306 7.25589 2.23283C3.51901 3.19235 1.26089 7.01045 2.22009 10.7486C2.48986 11.818 3.02941 12.8175 3.75881 13.6471C4.1285 14.0569 4.08853 14.6966 3.66888 15.0564C3.25922 15.4262 2.61976 15.3863 2.26005 14.9665C1.32084 13.907 0.641404 12.6176 0.281704 11.2383C-0.947272 6.43073 1.9603 1.52319 6.75631 0.283808C11.3025 -0.885607 15.9486 1.66312 17.4774 6.01094H17.9969C17.9969 6.01094 17.9969 6.01094 18.0069 6.01094C19.9553 6.01094 21.7838 6.96047 22.9128 8.55967C23.8321 9.86902 24.1918 11.4582 23.912 13.0374C23.6422 14.6166 22.763 15.996 21.4541 16.9155C21.2742 17.0354 21.0744 17.0954 20.8745 17.0954Z" fill="#000000"/>
</svg>
