<svg width="27" height="31" viewBox="0 0 27 31" fill="none" xmlns="http://www.w3.org/2000/svg">
<path d="M21.0141 30.1757H3.70857C1.66406 30.1757 0 28.4993 0 26.4396V9.00413C0 6.94446 1.66406 5.26807 3.70857 5.26807H12.3613C13.0445 5.26807 13.597 5.82631 13.597 6.51286C13.597 7.19942 13.0429 7.75766 12.3613 7.75766H3.70857C3.02707 7.75766 2.47293 8.31591 2.47293 9.00246V26.4363C2.47293 27.1229 3.02707 27.6811 3.70857 27.6811H21.0141C21.6956 27.6811 22.2498 27.1229 22.2498 26.4363V17.7194C22.2498 17.0312 22.8039 16.4746 23.4854 16.4746C24.1669 16.4746 24.721 17.0328 24.721 17.7194V26.4363C24.7227 28.4993 23.0603 30.1757 21.0141 30.1757Z" fill="#000000"/>
<path d="M21.4052 4.83505C21.0446 4.47178 21.0446 3.87687 21.4052 3.5136L24.6225 0.272456C24.9831 -0.0908186 25.5736 -0.0908186 25.9342 0.272456C26.2948 0.63573 26.2948 1.23063 25.9342 1.59391L22.7169 4.83505C22.3547 5.19666 21.7642 5.19666 21.4052 4.83505Z" fill="#000000"/>
<path d="M24.9452 5.95008C25.4447 5.95008 25.8483 5.54181 25.8483 5.04022C25.8483 4.53697 25.4431 4.13037 24.9452 4.13037C24.4456 4.13037 24.042 4.53864 24.042 5.04022C24.0403 5.54181 24.4456 5.95008 24.9452 5.95008Z" fill="#000000"/>
<path d="M13.6242 13.9933L20.8527 6.7111C21.2133 6.34782 21.2133 5.75292 20.8527 5.38964C20.4921 5.02637 19.9016 5.02637 19.541 5.38964L12.3124 12.6718C11.9518 13.0351 11.9518 13.63 12.3124 13.9933C12.6747 14.3549 13.2652 14.3549 13.6242 13.9933Z" fill="#000000"/>
<path d="M15.8253 15.55L23.8363 7.47965C24.1969 7.11638 24.1969 6.52147 23.8363 6.1582C23.4757 5.79492 22.8852 5.79492 22.5246 6.1582L14.5136 14.2286C14.153 14.5918 14.153 15.1867 14.5136 15.55C14.8759 15.9116 15.4647 15.9116 15.8253 15.55Z" fill="#000000"/>
<path d="M17.3683 17.7648L26.7291 8.33463C27.0897 7.97136 27.0897 7.37645 26.7291 7.01318C26.3685 6.6499 25.7779 6.6499 25.4173 7.01318L16.0566 16.445C15.696 16.8083 15.696 17.4032 16.0566 17.7664C16.4188 18.128 17.0077 18.128 17.3683 17.7648Z" fill="#000000"/>
<path d="M15.3342 18.3595C14.8793 17.9013 14.7205 17.258 14.8578 16.6698C14.5055 16.6082 14.1697 16.4415 13.8984 16.1682C13.594 15.8616 13.422 15.4717 13.384 15.0701C12.805 15.2017 12.1731 15.0417 11.7232 14.5885C11.619 14.4835 11.5313 14.3702 11.4586 14.2485L9.1709 19.5893C9.49015 19.6043 9.80774 19.7376 10.0526 19.9826C10.2841 20.2159 10.4132 20.5142 10.4396 20.8191L15.804 18.6962C15.6336 18.6145 15.4748 18.5012 15.3342 18.3595Z" fill="#000000"/>
<path d="M9.85242 20.6525L9.38926 20.186C9.17587 19.971 8.81362 20.056 8.71437 20.3426L8.47121 21.0541C8.36038 21.3791 8.66971 21.6891 8.99061 21.5774L9.69693 21.3324C9.98144 21.2325 10.0658 20.8675 9.85242 20.6525Z" fill="#000000"/>
</svg>
