<svg width="17" height="19" viewBox="0 0 17 19" fill="none" xmlns="http://www.w3.org/2000/svg">
<g clip-path="url(#clip0)">
<path d="M13.2317 18.9997H2.33513C1.04779 18.9997 0 17.9441 0 16.6473V5.66885C0 4.37196 1.04779 3.31641 2.33513 3.31641H7.78342C8.21358 3.31641 8.56145 3.66791 8.56145 4.1002C8.56145 4.5325 8.21254 4.884 7.78342 4.884H2.33513C1.90602 4.884 1.5571 5.2355 1.5571 5.6678V16.6452C1.5571 17.0775 1.90602 17.429 2.33513 17.429H13.2317C13.6608 17.429 14.0097 17.0775 14.0097 16.6452V11.1565C14.0097 10.7231 14.3587 10.3727 14.7878 10.3727C15.2169 10.3727 15.5658 10.7242 15.5658 11.1565V16.6452C15.5668 17.9441 14.5201 18.9997 13.2317 18.9997Z" fill="#000000"/>
<path d="M13.4779 3.04394C13.2509 2.8152 13.2509 2.44061 13.4779 2.21188L15.5037 0.171066C15.7308 -0.057673 16.1026 -0.057673 16.3296 0.171066C16.5567 0.399804 16.5567 0.77439 16.3296 1.00313L14.3038 3.04394C14.0758 3.27163 13.7039 3.27163 13.4779 3.04394Z" fill="#000000"/>
<path d="M15.7064 3.74589C16.0209 3.74589 16.2751 3.48882 16.2751 3.17299C16.2751 2.85612 16.0199 2.6001 15.7064 2.6001C15.3918 2.6001 15.1377 2.85717 15.1377 3.17299C15.1367 3.48882 15.3918 3.74589 15.7064 3.74589Z" fill="#000000"/>
<path d="M8.57826 8.81056L13.1298 4.2253C13.3568 3.99656 13.3568 3.62197 13.1298 3.39323C12.9027 3.1645 12.5309 3.1645 12.3039 3.39323L7.75232 7.9785C7.52527 8.20724 7.52527 8.58182 7.75232 8.81056C7.98042 9.03825 8.35225 9.03825 8.57826 8.81056Z" fill="#000000"/>
<path d="M9.96401 9.79076L15.0082 4.70918C15.2352 4.48045 15.2352 4.10586 15.0082 3.87712C14.7811 3.64838 14.4093 3.64838 14.1822 3.87712L9.13807 8.95869C8.91101 9.18743 8.91101 9.56202 9.13807 9.79076C9.36616 10.0184 9.73695 10.0184 9.96401 9.79076Z" fill="#000000"/>
<path d="M10.9357 11.185L16.8298 5.24727C17.0568 5.01853 17.0568 4.64395 16.8298 4.41521C16.6027 4.18647 16.2309 4.18647 16.0038 4.41521L10.1097 10.354C9.88269 10.5828 9.88269 10.9573 10.1097 11.1861C10.3378 11.4138 10.7086 11.4138 10.9357 11.185Z" fill="#000000"/>
<path d="M9.65518 11.5597C9.36876 11.2712 9.26877 10.8662 9.35522 10.4958C9.13337 10.4569 8.92194 10.352 8.75113 10.1799C8.55948 9.98688 8.45117 9.74135 8.42721 9.48848C8.06267 9.57137 7.6648 9.47064 7.38151 9.18524C7.31589 9.11914 7.26069 9.04779 7.21486 8.97119L5.77441 12.3341C5.97543 12.3435 6.17541 12.4275 6.32955 12.5817C6.47537 12.7286 6.55661 12.9164 6.57327 13.1084L9.95098 11.7717C9.8437 11.7203 9.74371 11.6489 9.65518 11.5597Z" fill="#000000"/>
<path d="M6.20348 13.0035L5.91185 12.7097C5.77749 12.5743 5.5494 12.6278 5.4869 12.8083L5.3338 13.2563C5.26401 13.461 5.45878 13.6561 5.66084 13.5858L6.10558 13.4316C6.28472 13.3686 6.33784 13.1388 6.20348 13.0035Z" fill="#000000"/>
</g>
<defs>
<clipPath id="clip0">
<rect width="17" height="19" fill="#000000"/>
</clipPath>
</defs>
</svg>
