<svg width="38" height="49" viewBox="0 0 38 49" fill="none" xmlns="http://www.w3.org/2000/svg">
<path d="M26.7639 0.429688H1.69255C1.00164 0.429688 0.431641 0.98846 0.431641 2.08881V47.7104C0.431641 48.0113 0.993004 48.57 1.69255 48.57H36.2985C36.998 48.57 37.5594 48.0113 37.5594 47.7104V11.5879C37.5594 10.9862 37.4816 10.7971 37.3348 10.6509L27.2994 0.653196C27.1525 0.507056 26.9625 0.429688 26.7639 0.429688Z" stroke="#0566A8" stroke-miterlimit="10"/>
<path d="M27.2051 0.558594V10.7454H37.4392L27.2051 0.558594Z" fill="#0566A8"/>
<path d="M11.6669 29.0733C11.3646 29.0733 11.0796 28.9787 10.8292 28.7896C9.93098 28.119 9.81007 27.3712 9.87052 26.864C10.026 25.4627 11.7619 24.0013 15.0437 22.5055C16.3392 19.6687 17.5742 16.1785 18.3169 13.2643C17.4533 11.3989 16.6155 8.97466 17.2287 7.55624C17.4446 7.05764 17.7123 6.6794 18.2046 6.50747C18.4033 6.4387 18.8955 6.36133 19.0855 6.36133C19.5173 6.36133 19.906 6.9201 20.1737 7.26396C20.4328 7.59063 21.0028 8.26975 19.8542 13.1096C21.0201 15.4994 22.6696 17.9408 24.2501 19.6085C25.3814 19.4022 26.3573 19.299 27.1519 19.299C28.5078 19.299 29.3196 19.6085 29.6564 20.2619C29.9328 20.7948 29.8205 21.4224 29.3196 22.1187C28.836 22.7892 28.171 23.1417 27.4023 23.1417C26.3487 23.1417 25.131 22.4797 23.7664 21.1817C21.3137 21.6889 18.4551 22.6001 16.1405 23.6059C15.4151 25.1275 14.7242 26.3568 14.0851 27.2594C13.1869 28.4973 12.4269 29.0733 11.6669 29.0733ZM13.9728 24.6719C12.1246 25.7034 11.3733 26.5545 11.3214 27.0273C11.3128 27.1047 11.2869 27.311 11.6928 27.6204C11.8137 27.5861 12.5737 27.2422 13.9728 24.6719ZM25.7442 20.855C26.4437 21.3966 26.6164 21.6631 27.0828 21.6631C27.2814 21.6631 27.8601 21.6545 28.1278 21.2848C28.2573 21.1043 28.3092 20.9926 28.3264 20.9238C28.2228 20.8636 28.076 20.7519 27.316 20.7519C26.8755 20.7604 26.3314 20.7776 25.7442 20.855ZM19.2928 15.1899C18.671 17.3133 17.8592 19.6171 16.9869 21.6889C18.7919 20.9926 20.7523 20.3822 22.6005 19.9524C21.4346 18.6113 20.2687 16.9264 19.2928 15.1899ZM18.7746 7.91729C18.6883 7.94308 17.626 9.43028 18.861 10.6854C19.6728 8.86291 18.8092 7.9087 18.7746 7.91729Z" fill="#0566A8"/>
<path d="M36.3071 48.5701H1.69255C0.993004 48.5701 0.431641 48.0113 0.431641 47.315V33.9561H37.568V47.315C37.568 48.0113 37.0066 48.5701 36.3071 48.5701Z" fill="#0566A8"/>
</svg>
