<svg width="38" height="49" viewBox="0 0 38 49" fill="none" xmlns="http://www.w3.org/2000/svg">
<path d="M26.7639 0.429688H1.69255C1.00164 0.429688 0.431641 0.98846 0.431641 2.08881V47.7104C0.431641 48.0113 0.993004 48.57 1.69255 48.57H36.2985C36.998 48.57 37.5594 48.0113 37.5594 47.7104V11.5879C37.5594 10.9862 37.4816 10.7971 37.3348 10.6509L27.2994 0.653196C27.1525 0.507056 26.9625 0.429688 26.7639 0.429688Z" stroke="#000000" stroke-miterlimit="10"/>
<path d="M27.2051 0.558594V10.7454H37.4392L27.2051 0.558594Z" fill="#000000"/>
<path d="M36.3071 48.5701H1.69255C0.993004 48.5701 0.431641 48.0113 0.431641 47.315V33.9561H37.568V47.315C37.568 48.0113 37.0066 48.5701 36.3071 48.5701Z" fill="#000000"/>
<path d="M10.7955 11.605H5.61364C5.13864 11.605 4.75 11.2182 4.75 10.7454C4.75 10.2726 5.13864 9.88574 5.61364 9.88574H10.7955C11.2705 9.88574 11.6591 10.2726 11.6591 10.7454C11.6591 11.2182 11.2705 11.605 10.7955 11.605Z" fill="#000000"/>
<path d="M13.3864 15.9034H5.61364C5.13864 15.9034 4.75 15.5165 4.75 15.0437C4.75 14.5709 5.13864 14.1841 5.61364 14.1841H13.3864C13.8614 14.1841 14.25 14.5709 14.25 15.0437C14.25 15.5165 13.8614 15.9034 13.3864 15.9034Z" fill="#000000"/>
<path d="M16.8402 15.9034C16.6157 15.9034 16.3911 15.8088 16.227 15.6541C16.0716 15.4907 15.9766 15.2758 15.9766 15.0437C15.9766 14.8116 16.0716 14.5967 16.2357 14.4334C16.5466 14.1153 17.1338 14.1153 17.4534 14.4334C17.6088 14.5967 17.7038 14.8202 17.7038 15.0437C17.7038 15.2672 17.6088 15.4907 17.4534 15.6541C17.2893 15.8088 17.0647 15.9034 16.8402 15.9034Z" fill="#000000"/>
<path d="M27.2044 15.9034H20.2953C19.8203 15.9034 19.4316 15.5165 19.4316 15.0437C19.4316 14.5709 19.8203 14.1841 20.2953 14.1841H27.2044C27.6794 14.1841 28.068 14.5709 28.068 15.0437C28.068 15.5165 27.6794 15.9034 27.2044 15.9034Z" fill="#000000"/>
<path d="M5.61364 28.7983C5.38909 28.7983 5.16455 28.7037 5.00045 28.549C4.845 28.3857 4.75 28.1622 4.75 27.9387C4.75 27.7152 4.845 27.4916 5.00045 27.3283C5.32 27.0102 5.90727 27.0102 6.22682 27.3369C6.38227 27.4916 6.47727 27.7152 6.47727 27.9387C6.47727 28.1622 6.38227 28.3857 6.22682 28.549C6.06273 28.7037 5.83818 28.7983 5.61364 28.7983Z" fill="#000000"/>
<path d="M15.9778 28.7979H9.06871C8.59371 28.7979 8.20508 28.4111 8.20508 27.9383C8.20508 27.4655 8.59371 27.0786 9.06871 27.0786H15.9778C16.4528 27.0786 16.8414 27.4655 16.8414 27.9383C16.8414 28.4111 16.4528 28.7979 15.9778 28.7979Z" fill="#000000"/>
<path d="M32.3858 15.9034H30.6586C30.1836 15.9034 29.7949 15.5165 29.7949 15.0437C29.7949 14.5709 30.1836 14.1841 30.6586 14.1841H32.3858C32.8608 14.1841 33.2495 14.5709 33.2495 15.0437C33.2495 15.5165 32.8608 15.9034 32.3858 15.9034Z" fill="#000000"/>
<path d="M24.6136 20.2017H5.61364C5.13864 20.2017 4.75 19.8149 4.75 19.3421C4.75 18.8693 5.13864 18.4824 5.61364 18.4824H24.6136C25.0886 18.4824 25.4773 18.8693 25.4773 19.3421C25.4773 19.8149 25.0886 20.2017 24.6136 20.2017Z" fill="#000000"/>
<path d="M32.3853 20.2017H27.2035C26.7285 20.2017 26.3398 19.8149 26.3398 19.3421C26.3398 18.8693 26.7285 18.4824 27.2035 18.4824H32.3853C32.8603 18.4824 33.2489 18.8693 33.2489 19.3421C33.2489 19.8149 32.8603 20.2017 32.3853 20.2017Z" fill="#000000"/>
<path d="M9.06818 24.5001H5.61364C5.13864 24.5001 4.75 24.1132 4.75 23.6404C4.75 23.1676 5.13864 22.7808 5.61364 22.7808H9.06818C9.54318 22.7808 9.93182 23.1676 9.93182 23.6404C9.93182 24.1132 9.54318 24.5001 9.06818 24.5001Z" fill="#000000"/>
<path d="M21.1582 24.5001H12.5218C12.0468 24.5001 11.6582 24.1132 11.6582 23.6404C11.6582 23.1676 12.0468 22.7808 12.5218 22.7808H21.1582C21.6332 22.7808 22.0218 23.1676 22.0218 23.6404C22.0218 24.1132 21.6332 24.5001 21.1582 24.5001Z" fill="#000000"/>
<path d="M32.3864 24.5001H24.6136C24.1386 24.5001 23.75 24.1132 23.75 23.6404C23.75 23.1676 24.1386 22.7808 24.6136 22.7808H32.3864C32.8614 22.7808 33.25 23.1676 33.25 23.6404C33.25 24.1132 32.8614 24.5001 32.3864 24.5001Z" fill="#000000"/>
</svg>
