<svg width="38" height="49" viewBox="0 0 38 49" fill="none" xmlns="http://www.w3.org/2000/svg">
<path d="M26.7639 0.429688H1.69255C1.00164 0.429688 0.431641 0.98846 0.431641 2.08881V47.7104C0.431641 48.0113 0.993004 48.57 1.69255 48.57H36.2985C36.998 48.57 37.5594 48.0113 37.5594 47.7104V11.5879C37.5594 10.9862 37.4816 10.7971 37.3348 10.6509L27.2994 0.653196C27.1525 0.507056 26.9625 0.429688 26.7639 0.429688Z" stroke="#000000" stroke-miterlimit="10"/>
<path d="M36.3071 48.5701H1.69255C0.993004 48.5701 0.431641 48.0113 0.431641 47.315V33.9561H37.568V47.315C37.568 48.0113 37.0066 48.5701 36.3071 48.5701Z" fill="#000000"/>
<path d="M27.2051 0.558594V10.7454H37.4392L27.2051 0.558594Z" fill="#000000"/>
<path d="M11.1675 16.763C13.3473 16.763 15.1143 15.0041 15.1143 12.8344C15.1143 10.6647 13.3473 8.90576 11.1675 8.90576C8.98775 8.90576 7.2207 10.6647 7.2207 12.8344C7.2207 15.0041 8.98775 16.763 11.1675 16.763Z" fill="#000000"/>
<path d="M0.431641 33.9558H9.93164H37.568V24.4997L28.9316 16.333L19.8635 26.219L15.1307 21.5081L0.431641 33.9558Z" fill="#000000"/>
</svg>
