<svg width="38" height="49" viewBox="0 0 38 49" fill="none" xmlns="http://www.w3.org/2000/svg">
<path d="M26.7639 0.429688H1.69255C1.00164 0.429688 0.431641 0.98846 0.431641 2.08881V47.7104C0.431641 48.0113 0.993004 48.57 1.69255 48.57H36.2985C36.998 48.57 37.5594 48.0113 37.5594 47.7104V11.5879C37.5594 10.9862 37.4816 10.7971 37.3348 10.6509L27.2994 0.653196C27.1525 0.507056 26.9625 0.429688 26.7639 0.429688Z" stroke="#000000" stroke-miterlimit="10"/>
<path d="M27.2051 0.558594V10.7454H37.4392L27.2051 0.558594Z" fill="#000000"/>
<path d="M36.3071 48.5701H1.69255C0.993004 48.5701 0.431641 48.0113 0.431641 47.315V33.9561H37.568V47.315C37.568 48.0113 37.0066 48.5701 36.3071 48.5701Z" fill="#000000"/>
<path d="M19.4318 21.0611V19.3418H21.1591V17.6225H19.4318V15.9032H21.1591V14.1839H19.4318V12.4646H21.1591V10.7453H19.4318V9.026H21.1591V7.3067H19.4318V5.5874H17.7045V7.3067H15.9773V9.026H17.7045V10.7453H15.9773V12.4646H17.7045V14.1839H15.9773V15.9032H17.7045V17.6225H15.9773V19.3418H17.7045V21.0611H14.25V25.3593C14.25 27.732 16.1845 29.6576 18.5682 29.6576C20.9518 29.6576 22.8864 27.732 22.8864 25.3593V21.0611H19.4318ZM21.1591 25.3593C21.1591 26.7778 19.9932 27.9383 18.5682 27.9383C17.1432 27.9383 15.9773 26.7778 15.9773 25.3593V22.7804H21.1591V25.3593Z" fill="#000000"/>
<path d="M17.7054 26.2188H19.4327C19.9077 26.2188 20.2963 25.832 20.2963 25.3592C20.2963 24.8864 19.9077 24.4995 19.4327 24.4995H17.7054C17.2304 24.4995 16.8418 24.8864 16.8418 25.3592C16.8418 25.832 17.2304 26.2188 17.7054 26.2188Z" fill="#000000"/>
</svg>
