<svg width="16" height="14" viewBox="0 0 16 14" fill="none" xmlns="http://www.w3.org/2000/svg">
<path d="M13.8182 2.1H7.66545L6.42909 0.315C6.29091 0.119 6.05818 0 5.81818 0H2.18182C0.981818 0 0 0.945 0 2.1V11.9C0 13.055 0.981818 14 2.18182 14H13.8182C15.0182 14 16 13.055 16 11.9V4.2C16 3.045 15.0182 2.1 13.8182 2.1ZM1.45455 11.9C1.45455 12.285 1.78182 12.6 2.18182 12.6C1.78182 12.6 1.45455 12.285 1.45455 11.9ZM13.8182 12.6C14.2182 12.6 14.5455 12.285 14.5455 11.9C14.5455 12.285 14.2182 12.6 13.8182 12.6Z" fill="#000000"/>
</svg>
