<svg width="14" height="16" viewBox="0 0 14 16" fill="none" xmlns="http://www.w3.org/2000/svg">
<g clip-path="url(#clip0)">
<path d="M11.9 16H2.1C0.945 16 0 15.0182 0 13.8182V5.81818C0 5.59273 0.098 5.38182 0.273 5.24364L6.573 0.152727C6.825 -0.0509091 7.182 -0.0509091 7.434 0.152727L13.734 5.24364C13.902 5.38182 14 5.59273 14 5.81818V13.8182C14 15.0182 13.055 16 11.9 16ZM1.4 6.17455V13.8182C1.4 14.2182 1.715 14.5455 2.1 14.5455H11.9C12.285 14.5455 12.6 14.2182 12.6 13.8182V6.17455L7 1.65091L1.4 6.17455Z" fill="#000000"/>
<path d="M9.09922 16C8.71422 16 8.39922 15.6727 8.39922 15.2727V8.72725H5.59922V15.2727C5.59922 15.6727 5.28422 16 4.89922 16C4.51422 16 4.19922 15.6727 4.19922 15.2727V7.99998C4.19922 7.59998 4.51422 7.27271 4.89922 7.27271H9.09922C9.48422 7.27271 9.79922 7.59998 9.79922 7.99998V15.2727C9.79922 15.6727 9.48422 16 9.09922 16Z" fill="#000000"/>
</g>
<defs>
<clipPath id="clip0">
<rect width="14" height="16" fill="white"/>
</clipPath>
</defs>
</svg>
