<svg width="17" height="22" viewBox="0 0 17 22" fill="none" xmlns="http://www.w3.org/2000/svg">
<path d="M16.5284 8.25H15.1098V6.41544C15.1098 2.87919 12.1472 0 8.5 0C4.8528 0 1.89016 2.87919 1.89016 6.41544V8.25H0.471588C0.209172 8.25 0 8.45671 0 8.70772V20.1654C0 21.1768 0.848099 22 1.89016 22H15.1136C16.1557 22 17.0038 21.1768 17.0038 20.1654V8.70772C17 8.45671 16.787 8.25 16.5284 8.25ZM9.91477 17.8252C9.92998 17.9544 9.88814 18.0836 9.79687 18.1832C9.70559 18.2792 9.58009 18.3346 9.44318 18.3346H7.55302C7.41991 18.3346 7.2906 18.2792 7.19933 18.1832C7.10805 18.0872 7.06622 17.9581 7.08143 17.8252L7.37808 15.2265C6.89508 14.8832 6.60604 14.3443 6.60604 13.7537C6.60604 12.7423 7.45414 11.9191 8.4962 11.9191C9.53825 11.9191 10.3864 12.7423 10.3864 13.7537C10.3864 14.348 10.0973 14.8869 9.61432 15.2265L9.91477 17.8252ZM12.2765 8.25H4.72349V6.41544C4.72349 4.39262 6.41969 2.75 8.5 2.75C10.5803 2.75 12.2765 4.39631 12.2765 6.41544V8.25Z" fill="#409CFF"/>
</svg>
