<svg width="25" height="26" viewBox="0 0 25 26" fill="none" xmlns="http://www.w3.org/2000/svg">
<g clip-path="url(#clip0)">
<path d="M19.3735 3.95172C19.089 3.67278 19.089 3.17067 19.3735 2.88941L22.1144 0.209209C22.399 -0.0697362 22.9135 -0.0697362 23.2004 0.209209C23.4849 0.488154 23.4849 0.990255 23.2004 1.27152L20.4595 3.95172C20.1726 4.28645 19.6581 4.28645 19.3735 3.95172Z" fill="#007BFF"/>
<path d="M12.8054 11.4925L18.9156 5.51615C19.2001 5.23721 19.2001 4.73511 18.9156 4.45384C18.631 4.17489 18.1165 4.17489 17.8296 4.45384L11.6626 10.4326C11.3781 10.7115 11.3781 11.2136 11.6626 11.4949C12.0064 11.7715 12.464 11.7715 12.8054 11.4925Z" fill="#007BFF"/>
<path d="M14.6333 12.7781L21.4286 6.12992C21.7132 5.85098 21.7132 5.34888 21.4286 5.06761C21.1441 4.78866 20.6296 4.78866 20.3427 5.06761L13.5474 11.66C13.2629 11.939 13.2629 12.4411 13.5474 12.7223C13.8319 13.0571 14.3464 13.0571 14.6333 12.7781Z" fill="#007BFF"/>
<path d="M15.9468 14.5658L23.8849 6.8018C24.1695 6.52285 24.1695 6.02075 23.8849 5.73948C23.6004 5.46054 23.0859 5.46054 22.799 5.73948L14.8609 13.5058C14.5763 13.7847 14.5763 14.2868 14.8609 14.5681C15.1477 14.9005 15.6623 14.9005 15.9468 14.5658Z" fill="#007BFF"/>
<path d="M22.904 4.62149C23.1933 4.3379 23.1933 3.87764 22.904 3.59404C22.6148 3.31045 22.1453 3.31045 21.8537 3.59404C21.5644 3.87764 21.5644 4.3379 21.8537 4.62149C22.1453 4.90508 22.6148 4.90508 22.904 4.62149Z" fill="#007BFF"/>
<path d="M14.2356 15.0674C13.8349 14.6769 13.7211 14.1748 13.8349 13.6704C13.5504 13.6146 13.2635 13.503 13.0359 13.2799C12.7514 13.0009 12.6352 12.722 12.5783 12.3872C12.0638 12.4988 11.5493 12.3872 11.1509 11.9967C11.0371 11.8851 10.9802 11.8294 10.9233 11.7178L8.98145 16.1298C9.26597 16.1298 9.49596 16.2413 9.72357 16.4645C9.89429 16.6319 10.0081 16.9108 10.0674 17.134L14.6363 15.4022C14.5201 15.2906 14.3494 15.179 14.2356 15.0674Z" fill="#007BFF"/>
<path d="M9.60726 16.9664L9.20656 16.5758C9.03584 16.4085 8.69204 16.4643 8.63514 16.6874L8.40752 17.2453C8.29371 17.5242 8.57824 17.7474 8.86513 17.6916L9.43654 17.4684C9.72107 17.4708 9.78034 17.1337 9.60726 16.9664Z" fill="#007BFF"/>
<path fill-rule="evenodd" clip-rule="evenodd" d="M24.6459 12.248C24.2262 12.2457 22.0686 12.2457 20.1481 12.248L15.987 16.3276H20.1196C18.4386 23.0014 8.13415 22.9247 5.59005 16.7181C2.9274 10.221 8.73876 4.41434 14.6521 5.76258L18.3603 2.12699C14.6544 0.5649 9.70613 0.585821 6.0524 2.88247C-1.73165 7.32467 -2.42162 19.5471 6.4199 24.3217C15.5104 29.2404 27.1805 22.7968 24.6459 12.248Z" fill="#007BFF"/>
</g>
<defs>
<clipPath id="clip0">
<rect width="25" height="26" fill="white"/>
</clipPath>
</defs>
</svg>
