<svg width="25" height="26" viewBox="0 0 25 26" fill="none" xmlns="http://www.w3.org/2000/svg">
<g clip-path="url(#clip0)">
<path d="M21.6523 13.9736C21.6523 17.2028 21.6523 20.3762 21.6523 23.5496C21.6523 23.661 21.6523 23.7167 21.5407 23.7167C19.0854 24.4404 16.63 25.2199 14.1747 25.9437C14.1189 25.9437 14.0073 25.9437 13.9515 25.9437C10.9381 24.8858 7.92467 23.7723 4.91127 22.7145C3.40458 22.1578 1.84208 21.6567 0.335379 21.1C0.279576 21.1 0.223772 21.0443 0.167969 21.0443C4.79967 21.601 9.43136 22.1578 14.0631 22.7145V19.4854L16.909 18.3719C17.4671 18.1492 17.9693 17.8152 18.4157 17.3698L21.6523 13.9736Z" fill="#000000"/>
<path d="M21.6518 2.56103V2.78373L14.0625 10.1884V4.23126C13.7835 4.28694 13.5045 4.34261 13.2254 4.39829C10.4911 5.01071 7.8125 5.6788 5.07812 6.29122C4.85491 6.34689 4.85491 6.29122 4.85491 6.51392C4.85491 10.5782 4.85491 14.5867 4.85491 18.651C4.85491 18.7623 4.79911 18.8737 4.6875 18.9293C3.1808 19.5974 1.6183 20.2655 0.111607 20.9336C0.0558036 20.9336 0.0558036 20.9893 0 20.9893V5.28908C0 5.17773 0.0558036 5.12206 0.167411 5.06638C4.7433 3.39615 9.3192 1.67024 13.9509 0C14.0067 0 14.0625 0 14.1741 0C16.6295 0.779443 19.0848 1.55889 21.4844 2.33833C21.6518 2.394 21.6518 2.44968 21.6518 2.56103Z" fill="#000000"/>
<path d="M20.3684 6.51417C20.0894 6.2358 20.0894 5.73473 20.3684 5.45635L23.047 2.78397C23.326 2.5056 23.8283 2.5056 24.1073 2.78397C24.3863 3.06235 24.3863 3.56342 24.1073 3.84179L21.4287 6.51417C21.1497 6.84822 20.6475 6.84822 20.3684 6.51417Z" fill="#000000"/>
<path d="M13.9513 14.0299L19.9223 8.07275C20.2013 7.79437 20.2013 7.2933 19.9223 7.01493C19.6433 6.73656 19.141 6.73656 18.862 7.01493L12.8352 12.9721C12.5562 13.2505 12.5562 13.7515 12.8352 14.0299C13.1701 14.3083 13.6165 14.3083 13.9513 14.0299Z" fill="#000000"/>
<path d="M15.7363 15.3108L22.3769 8.68554C22.656 8.40717 22.656 7.9061 22.3769 7.62773C22.0979 7.34935 21.5957 7.34935 21.3167 7.62773L14.6761 14.1973C14.397 14.4757 14.397 14.9768 14.6761 15.2551C14.9551 15.5892 15.4573 15.5892 15.7363 15.3108Z" fill="#000000"/>
<path d="M17.0205 17.0928L24.7772 9.354C25.0563 9.07562 25.0563 8.57455 24.7772 8.29618C24.4982 8.01781 23.996 8.01781 23.717 8.29618L15.9602 16.0349C15.6812 16.3133 15.6812 16.8144 15.9602 17.0928C16.2393 17.4268 16.7415 17.4268 17.0205 17.0928Z" fill="#000000"/>
<path d="M23.8184 7.18001C24.1015 6.89722 24.1015 6.43872 23.8184 6.15593C23.5352 5.87313 23.0761 5.87313 22.793 6.15592C22.5098 6.43872 22.5098 6.89722 22.793 7.18001C23.0761 7.46281 23.5352 7.46281 23.8184 7.18001Z" fill="#000000"/>
<path d="M15.3468 17.5934C14.9562 17.2037 14.8446 16.7026 14.9562 16.2015C14.6772 16.1459 14.3982 16.0345 14.1749 15.8118C13.8959 15.5334 13.7843 15.2551 13.7285 14.921C13.2263 15.0324 12.7241 14.921 12.3334 14.5313C12.2218 14.42 12.166 14.3643 12.1102 14.2529L10.2129 18.6512C10.4919 18.6512 10.7151 18.7626 10.9383 18.9853C11.1057 19.1523 11.2174 19.4307 11.2732 19.6534L15.7374 17.9274C15.6258 17.8161 15.4584 17.7047 15.3468 17.5934Z" fill="#000000"/>
<path d="M10.826 19.4863L10.4354 19.0966C10.2679 18.9296 9.93312 18.9853 9.87732 19.208L9.6541 19.7647C9.5425 20.0431 9.82152 20.2658 10.1005 20.2101L10.6586 19.9874C10.9376 19.9874 10.9934 19.6534 10.826 19.4863Z" fill="#000000"/>
</g>
<defs>
<clipPath id="clip0">
<rect width="25" height="26" fill="white"/>
</clipPath>
</defs>
</svg>
