<svg width="28" height="24" viewBox="0 0 28 24" fill="none" xmlns="http://www.w3.org/2000/svg">
<g clip-path="url(#clip0)">
<path d="M21.8695 5.61718C21.4745 5.22376 21.4745 4.57985 21.8695 4.18643L25.394 0.676411C25.7891 0.282993 26.4356 0.282993 26.8307 0.676411C27.2257 1.06983 27.2257 1.71374 26.8307 2.10716L23.3062 5.61718C22.9111 6.00906 22.263 6.00906 21.8695 5.61718Z" fill="#007BFF"/>
<path d="M25.7475 6.82528C26.2938 6.82528 26.7382 6.38423 26.7382 5.83867C26.7382 5.29465 26.2953 4.85205 25.7475 4.85205C25.2013 4.85205 24.7568 5.29311 24.7568 5.83867C24.7584 6.38423 25.2013 6.82528 25.7475 6.82528Z" fill="#007BFF"/>
<path d="M13.3452 15.537L21.2661 7.64866C21.6611 7.25525 21.6611 6.61133 21.2661 6.21791C20.8711 5.8245 20.2245 5.8245 19.8294 6.21791L11.9086 14.1062C11.5135 14.4997 11.5135 15.1436 11.9086 15.537C12.3052 15.9289 12.9502 15.9289 13.3452 15.537Z" fill="#007BFF"/>
<path d="M15.7544 17.2215L24.5317 8.48021C24.9267 8.08679 24.9267 7.44288 24.5317 7.04946C24.1367 6.65604 23.4901 6.65604 23.0951 7.04946L14.3178 15.7907C13.9227 16.1841 13.9227 16.828 14.3178 17.2215C14.7143 17.6149 15.3609 17.6149 15.7544 17.2215Z" fill="#007BFF"/>
<path d="M17.4468 19.622L27.7039 9.40696C28.099 9.01355 28.099 8.36963 27.7039 7.97622C27.3089 7.5828 26.6623 7.5828 26.2673 7.97622L16.0101 18.1912C15.6151 18.5847 15.6151 19.2286 16.0101 19.622C16.4067 20.0154 17.0518 20.0154 17.4468 19.622Z" fill="#007BFF"/>
<path d="M15.2184 20.266C14.72 19.7696 14.5456 19.0719 14.6968 18.4357C14.311 18.3696 13.9438 18.1898 13.6459 17.8932C13.3126 17.5613 13.1244 17.1387 13.0827 16.7038C12.4485 16.8467 11.7571 16.673 11.2633 16.1813C11.1492 16.0675 11.0535 15.9446 10.9748 15.814L8.46875 21.6C8.81904 21.6153 9.16624 21.7598 9.43475 22.0257C9.68782 22.2777 9.82979 22.6019 9.85911 22.9324L15.7369 20.6333C15.5471 20.5427 15.3727 20.4197 15.2184 20.266Z" fill="#007BFF"/>
<path d="M9.21294 22.749L8.70525 22.2434C8.4707 22.0098 8.07411 22.102 7.9661 22.4124L7.69914 23.1839C7.57723 23.5358 7.91672 23.8708 8.26855 23.7494L9.0432 23.4836C9.35336 23.3775 9.44595 22.981 9.21294 22.749Z" fill="#007BFF"/>
<path d="M15.7333 7.25823H5.36355C4.76481 7.25823 4.28027 6.77415 4.28027 6.17941C4.28027 5.58467 4.76636 5.10059 5.36355 5.10059H15.7333C16.3321 5.10059 16.8166 5.58467 16.8166 6.17941C16.8166 6.77415 16.3321 7.25823 15.7333 7.25823Z" fill="#007BFF"/>
<path d="M10.2487 12.6H5.36159C4.76286 12.6 4.27832 12.1175 4.27832 11.5212C4.27832 10.9249 4.7644 10.4424 5.36159 10.4424H10.2471C10.8459 10.4424 11.3304 10.9265 11.3304 11.5212C11.3319 12.119 10.8474 12.6 10.2487 12.6Z" fill="#007BFF"/>
<path d="M7.13002 17.9433H5.3616C4.76286 17.9433 4.27832 17.4607 4.27832 16.8645C4.27832 16.2682 4.76441 15.7856 5.3616 15.7856H7.13002C7.72875 15.7856 8.21329 16.2682 8.21329 16.8645C8.21484 17.4607 7.73029 17.9433 7.13002 17.9433Z" fill="#007BFF"/>
<path d="M19.5036 0C19.4881 0 19.4727 0.00153679 19.4573 0.00307357C19.4279 0.00153679 19.3971 0 19.3662 0H12.0503H3.61554C1.61874 0 0 1.61209 0 3.60069V20.4008C0 22.3895 1.61874 24.0015 3.61554 24.0015H4.50747C5.14323 24.0015 5.70339 23.5313 5.75894 22.9012C5.79906 22.4309 5.56914 22.0114 5.2065 21.7793C5.01361 21.6549 4.78214 21.6026 4.55222 21.6026H4.36087H3.93497H3.61554C2.95045 21.6026 2.41036 21.0647 2.41036 20.4024V3.60069C2.41036 2.93834 2.95045 2.40046 3.61554 2.40046H12.0503H19.1872H19.3662H19.4681H19.539C20.1887 2.38202 20.7087 1.85183 20.7087 1.20177C20.7103 0.537875 20.1702 0 19.5036 0Z" fill="#007BFF"/>
</g>
<defs>
<clipPath id="clip0">
<rect width="28" height="24" fill="white"/>
</clipPath>
</defs>
</svg>
