<svg width="19" height="15" viewBox="0 0 19 15" fill="none" xmlns="http://www.w3.org/2000/svg">
<g clip-path="url(#clip0)">
<path d="M15.82 15H3C1.35 15 0 13.65 0 12V3C0 1.35 1.35 0 3 0H15.82C17.47 0 18.82 1.35 18.82 3V12C18.82 13.65 17.47 15 15.82 15ZM3 2C2.45 2 2 2.45 2 3V12C2 12.55 2.45 13 3 13H15.82C16.37 13 16.82 12.55 16.82 12V3C16.82 2.45 16.37 2 15.82 2H3Z" fill="#000000"/>
<path d="M7.62961 5.62006C8.19846 5.62006 8.65961 5.15891 8.65961 4.59006C8.65961 4.02121 8.19846 3.56006 7.62961 3.56006C7.06076 3.56006 6.59961 4.02121 6.59961 4.59006C6.59961 5.15891 7.06076 5.62006 7.62961 5.62006Z" fill="#000000"/>
<path d="M4.71945 5.62006C5.28831 5.62006 5.74945 5.15891 5.74945 4.59006C5.74945 4.02121 5.28831 3.56006 4.71945 3.56006C4.1506 3.56006 3.68945 4.02121 3.68945 4.59006C3.68945 5.15891 4.1506 5.62006 4.71945 5.62006Z" fill="#000000"/>
<path d="M10.4792 5.62006C11.0481 5.62006 11.5092 5.15891 11.5092 4.59006C11.5092 4.02121 11.0481 3.56006 10.4792 3.56006C9.91037 3.56006 9.44922 4.02121 9.44922 4.59006C9.44922 5.15891 9.91037 5.62006 10.4792 5.62006Z" fill="#000000"/>
</g>
<defs>
<clipPath id="clip0">
<rect width="18.82" height="15" fill="#000000"/>
</clipPath>
</defs>
</svg>
