<svg width="18" height="21" viewBox="0 0 18 21" fill="none" xmlns="http://www.w3.org/2000/svg">
<path d="M15.5154 21H8.06024C6.69346 21 5.5752 19.883 5.5752 18.5177V11.0709C5.5752 9.70564 6.69346 8.58862 8.06024 8.58862H15.5154C16.8821 8.58862 18.0004 9.70564 18.0004 11.0709V18.5177C18.0004 19.8912 16.8904 21 15.5154 21ZM8.06024 10.2435C7.60465 10.2435 7.23189 10.6158 7.23189 11.0709V18.5177C7.23189 18.9728 7.60465 19.3451 8.06024 19.3451H15.5154C15.971 19.3451 16.3437 18.9728 16.3437 18.5177V11.0709C16.3437 10.6158 15.971 10.2435 15.5154 10.2435H8.06024Z" fill="#007BFF"/>
<path d="M9.94026 4.96454H4.97017C4.05899 4.96454 3.31348 4.21986 3.31348 3.30969V1.65485C3.31348 0.744681 4.05899 0 4.97017 0H9.94026C10.8514 0 11.597 0.744681 11.597 1.65485V3.30969C11.597 4.21986 10.8514 4.96454 9.94026 4.96454ZM4.97017 1.65485V3.30969H9.94026V1.65485H4.97017Z" fill="#007BFF"/>
<path d="M10.7688 3.30963H11.5971C12.5083 3.30963 13.2538 4.05431 13.2538 4.96448V6.60278C13.2538 7.05786 13.6266 7.4302 14.0822 7.4302C14.5378 7.4302 14.9105 7.05786 14.9105 6.60278V4.96448C14.9105 3.13587 13.4278 1.65479 11.5971 1.65479H10.7688C10.3132 1.65479 9.94043 2.02713 9.94043 2.48221C9.94043 2.93729 10.3132 3.30963 10.7688 3.30963Z" fill="#007BFF"/>
<path d="M3.33824 16.5484H3.31339C2.40221 16.5484 1.6567 15.8037 1.6567 14.8936V4.96448C1.6567 4.05431 2.40221 3.30963 3.31339 3.30963H4.14174C4.59733 3.30963 4.97009 2.93729 4.97009 2.48221C4.97009 2.02713 4.59733 1.65479 4.14174 1.65479H3.31339C1.48274 1.65479 0 3.13587 0 4.96448V14.8936C0 16.7222 1.48274 18.2032 3.31339 18.2032H3.33824C3.79383 18.2032 4.16659 17.8309 4.16659 17.3758C4.16659 16.9207 3.79383 16.5484 3.33824 16.5484Z" fill="#007BFF"/>
</svg>
