<svg width="28" height="28" viewBox="0 0 28 28" fill="none" xmlns="http://www.w3.org/2000/svg">
<path d="M23.8973 4.10259C18.4274 -1.36726 9.57353 -1.3678 4.10259 4.10259C-1.36726 9.57244 -1.3678 18.4264 4.10259 23.8973C9.57243 29.3671 18.4263 29.3682 23.8973 23.8973C29.3671 18.4274 29.3677 9.57353 23.8973 4.10259ZM13.9999 25.6976C7.55009 25.6976 2.30228 20.4503 2.30228 13.9999C2.30228 7.54955 7.55009 2.30228 13.9999 2.30228C20.4498 2.30228 25.6976 7.55009 25.6976 13.9999C25.6976 20.4498 20.4498 25.6976 13.9999 25.6976Z" fill="#000000"/>
<path d="M16.3351 8.7627C15.7002 8.7627 15.1855 9.2773 15.1855 9.91223V18.0875C15.1855 18.7224 15.7002 19.237 16.3351 19.237C16.97 19.237 17.4846 18.7224 17.4846 18.0875V9.91223C17.4846 9.2773 16.97 8.7627 16.3351 8.7627Z" fill="#000000"/>
<path d="M11.6652 8.7627C11.0302 8.7627 10.5156 9.2773 10.5156 9.91223V18.0875C10.5156 18.7224 11.0302 19.237 11.6652 19.237C12.3001 19.237 12.8147 18.7224 12.8147 18.0875V9.91223C12.8147 9.2773 12.3001 8.7627 11.6652 8.7627Z" fill="#000000"/>
</svg>
