<svg width="28" height="28" viewBox="0 0 28 28" fill="none" xmlns="http://www.w3.org/2000/svg">
<path d="M23.8955 4.10307C18.4257 -1.36677 9.57178 -1.36731 4.10084 4.10307C-1.369 9.57291 -1.3701 18.4268 4.10084 23.8977C9.57068 29.3676 18.4246 29.3687 23.8955 23.8977C29.3654 18.4279 29.3659 9.57401 23.8955 4.10307ZM13.9982 25.6981C7.54834 25.6981 2.30053 20.4508 2.30053 14.0004C2.30053 7.55002 7.54834 2.30276 13.9982 2.30276C20.448 2.30276 25.6958 7.55057 25.6958 14.0004C25.6958 20.4502 20.448 25.6981 13.9982 25.6981Z" fill="#000000"/>
<path d="M18.2087 13.0921L12.9532 9.00418C12.1991 8.41739 11.0977 8.95715 11.0977 9.91145V18.0867C11.0977 19.0481 12.2062 19.5753 12.9532 18.9939L18.2087 14.9061C18.7998 14.4478 18.8009 13.5525 18.2087 13.0921ZM13.3973 15.7368V12.2625L15.6307 13.9999L13.3973 15.7368Z" fill="#000000"/>
</svg>
