<svg width="22" height="22" viewBox="0 0 22 22" fill="none" xmlns="http://www.w3.org/2000/svg">
<path d="M17 9C16.45 9 16 8.55 16 8V2H6V8C6 8.55 5.55 9 5 9C4.45 9 4 8.55 4 8V1C4 0.45 4.45 0 5 0H17C17.55 0 18 0.45 18 1V8C18 8.55 17.55 9 17 9Z" fill="#000000"/>
<path d="M19 18H17C16.45 18 16 17.55 16 17C16 16.45 16.45 16 17 16H19C19.55 16 20 15.55 20 15V10C20 9.45 19.55 9 19 9H3C2.45 9 2 9.45 2 10V15C2 15.55 2.45 16 3 16H5C5.55 16 6 16.45 6 17C6 17.55 5.55 18 5 18H3C1.35 18 0 16.65 0 15V10C0 8.35 1.35 7 3 7H19C20.65 7 22 8.35 22 10V15C22 16.65 20.65 18 19 18Z" fill="#000000"/>
<path d="M17 22H5C4.45 22 4 21.55 4 21V13C4 12.45 4.45 12 5 12H17C17.55 12 18 12.45 18 13V21C18 21.55 17.55 22 17 22ZM6 20H16V14H6V20Z" fill="#000000"/>
</svg>
