<svg width="19" height="22" viewBox="0 0 19 22" fill="none" xmlns="http://www.w3.org/2000/svg">
<path d="M18.6774 18.5708L14.9603 21.7849C14.5836 22.1114 14.0185 22.0599 13.7003 21.6732C13.3822 21.2864 13.4324 20.7064 13.8092 20.3798L15.651 18.7728H6.827C4.03078 18.7728 1.762 16.4439 1.75781 13.5736V11.9279C1.75781 11.4208 2.15966 11.0126 2.64942 11.0126C3.13918 11.0126 3.54103 11.4251 3.54103 11.9279V13.5907C3.54521 15.4513 5.01029 16.9595 6.82281 16.9595H15.6552L13.8133 15.3525C13.4366 15.0259 13.3864 14.4501 13.7045 14.0591C14.0226 13.6724 14.5836 13.6208 14.9645 13.9474L18.6816 17.1614C19.0583 17.488 19.1086 18.0638 18.7904 18.4505C18.7569 18.4892 18.7193 18.5279 18.6816 18.5622L18.6774 18.5708Z" fill="#000000"/>
<path d="M16.3213 11.0039C15.8273 11.0039 15.4297 10.5914 15.4297 10.0887V8.42578C15.4255 6.56523 13.9604 5.05703 12.1479 5.05703H3.31553L5.15735 6.66406C5.5885 6.90898 5.74757 7.46757 5.50897 7.91015C5.27037 8.35273 4.7262 8.51601 4.29504 8.27109C4.19458 8.21523 4.10668 8.13789 4.03552 8.04765L0.318398 4.83359C-0.0583368 4.50702 -0.108568 3.93124 0.209564 3.54452C0.243051 3.50585 0.280725 3.46718 0.318398 3.4328L4.03552 0.214441C4.41225 -0.112122 4.97735 -0.0605583 5.29549 0.32616C5.61362 0.71288 5.56339 1.29296 5.18665 1.61952L3.34484 3.22655H12.1521C14.9483 3.23085 17.2171 5.55546 17.2212 8.43008V10.093C17.2129 10.5957 16.8152 11.0039 16.3213 11.0039Z" fill="#000000"/>
</svg>
