<svg width="21" height="20" viewBox="0 0 21 20" fill="none" xmlns="http://www.w3.org/2000/svg">
<path d="M19.0029 19.1152H10.0029C9.45293 19.1152 9.00293 18.6652 9.00293 18.1152C9.00293 17.5652 9.45293 17.1152 10.0029 17.1152H19.0029C19.5529 17.1152 20.0029 17.5652 20.0029 18.1152C20.0029 18.6652 19.5529 19.1152 19.0029 19.1152Z" fill="#000000"/>
<path d="M1.00253 19.115C0.742526 19.115 0.482526 19.015 0.292526 18.825C0.042526 18.575 -0.057474 18.215 0.032526 17.875L1.03253 13.875C1.07253 13.695 1.16253 13.535 1.29253 13.415L13.7925 0.915C15.0125 -0.305 16.9925 -0.305 18.2025 0.915C18.7925 1.505 19.1125 2.285 19.1125 3.125C19.1125 3.965 18.7925 4.745 18.2025 5.335L5.70253 17.835C5.57253 17.965 5.41253 18.055 5.24253 18.095L1.24253 19.095C1.16253 19.105 1.08253 19.115 1.00253 19.115ZM2.90253 14.625L2.37253 16.735L4.48253 16.205L16.7825 3.905C17.0025 3.695 17.1225 3.415 17.1225 3.115C17.1225 2.815 17.0025 2.535 16.7925 2.325C16.3525 1.885 15.6425 1.885 15.2025 2.325L2.90253 14.625Z" fill="#000000"/>
</svg>
