<svg width="20" height="20" viewBox="0 0 20 20" fill="none" xmlns="http://www.w3.org/2000/svg">
<path fill-rule="evenodd" clip-rule="evenodd" d="M9.16602 3.33341C5.94436 3.33341 3.33268 5.94509 3.33268 9.16675C3.33268 12.3884 5.94436 15.0001 9.16602 15.0001C12.3877 15.0001 14.9994 12.3884 14.9994 9.16675C14.9994 5.94509 12.3877 3.33341 9.16602 3.33341ZM1.66602 9.16675C1.66602 5.02461 5.02388 1.66675 9.16602 1.66675C13.3082 1.66675 16.666 5.02461 16.666 9.16675C16.666 13.3089 13.3082 16.6667 9.16602 16.6667C5.02388 16.6667 1.66602 13.3089 1.66602 9.16675Z" fill="#000000"/>
<path fill-rule="evenodd" clip-rule="evenodd" d="M13.2851 13.2858C13.6105 12.9604 14.1382 12.9604 14.4636 13.2858L18.0886 16.9108C18.414 17.2363 18.414 17.7639 18.0886 18.0893C17.7632 18.4148 17.2355 18.4148 16.9101 18.0893L13.2851 14.4643C12.9597 14.1389 12.9597 13.6113 13.2851 13.2858Z" fill="#000000"/>
</svg>
