<?xml version="1.0" encoding="utf-8"?>
<svg width="24" height="24" viewBox="4 4 24 24" fill="none" xmlns="http://www.w3.org/2000/svg">
  <g>
    <path d="M24 26H8C6.35 26 5 24.65 5 23V9C5 7.35 6.35 6 8 6H13C13.33 6 13.65 6.17 13.83 6.45L15.54 9H24C25.65 9 27 10.35 27 12V23C27 24.65 25.65 26 24 26ZM8 8C7.45 8 7 8.45 7 9V23C7 23.55 7.45 24 8 24H24C24.55 24 25 23.55 25 23V12C25 11.45 24.55 11 24 11H15C14.67 11 14.35 10.83 14.17 10.55L12.46 8H8Z" fill="#000000"/>
  </g>
  <g clip-path="url(#clip0)" transform="matrix(0, 1, -1, 0, 33.359138, 0.999916)">
    <path d="M20.459 16.8682C20.4222 16.8622 20.385 16.8595 20.3477 16.86H13.9983L14.1368 16.7956C14.2721 16.7315 14.3952 16.6443 14.5006 16.538L16.2811 14.7575C16.5156 14.5336 16.555 14.1735 16.3745 13.9042C16.1644 13.6173 15.7615 13.555 15.4745 13.7651C15.4513 13.7821 15.4293 13.8006 15.4086 13.8205L12.1889 17.0403C11.9372 17.2916 11.937 17.6993 12.1884 17.9509C12.1885 17.9511 12.1887 17.9513 12.1889 17.9514L15.4086 21.1712C15.6604 21.4223 16.0681 21.4217 16.3193 21.1699C16.339 21.1501 16.3575 21.129 16.3745 21.1068C16.555 20.8375 16.5156 20.4774 16.2811 20.2535L14.5038 18.4698C14.4094 18.3752 14.3007 18.2959 14.1819 18.2348L13.9887 18.1478H20.3122C20.6412 18.1601 20.9298 17.9303 20.9916 17.6069C21.0485 17.2559 20.8101 16.9252 20.459 16.8682Z" fill="#000000"/>
  </g>
</svg>