<svg width="25" height="21" viewBox="0 0 25 21" fill="none" xmlns="http://www.w3.org/2000/svg">
<path d="M16.0189 15.0045C15.7589 15.0045 15.5089 14.9045 15.3089 14.7145L12.0189 11.4245L8.72887 14.7045C8.33887 15.0945 7.70887 15.0945 7.31887 14.7045C6.92887 14.3145 6.92887 13.6845 7.31887 13.2945L11.3189 9.29445C11.7089 8.90445 12.3389 8.90445 12.7289 9.29445L16.7289 13.2945C17.1189 13.6845 17.1189 14.3145 16.7289 14.7045C16.5289 14.9045 16.2689 15.0045 16.0189 15.0045Z" fill="#000000"/>
<path d="M12.0195 20.0049C11.4695 20.0049 11.0195 19.5549 11.0195 19.0049V10.0049C11.0195 9.45488 11.4695 9.00488 12.0195 9.00488C12.5695 9.00488 13.0195 9.45488 13.0195 10.0049V19.0049C13.0195 19.5549 12.5695 20.0049 12.0195 20.0049Z" fill="#000000"/>
<path d="M20.4092 17.3947C20.0592 17.3947 19.7092 17.2047 19.5292 16.8747C19.2692 16.3947 19.4392 15.7847 19.9292 15.5147C21.8692 14.4547 22.5792 12.0247 21.5292 10.0847C20.8292 8.80467 19.4792 8.00467 18.0192 8.00467H16.7592C16.2992 8.00467 15.9092 7.69467 15.7892 7.25467C14.8192 3.51467 10.9992 1.26467 7.25921 2.23467C5.44921 2.69467 3.92921 3.84467 2.97921 5.45467C2.02921 7.06467 1.76921 8.95467 2.22921 10.7647C2.49921 11.8247 3.02921 12.8247 3.75921 13.6447C4.12921 14.0547 4.08921 14.6947 3.66921 15.0547C3.25921 15.4247 2.61922 15.3847 2.25921 14.9647C1.31921 13.9047 0.639215 12.6247 0.289215 11.2547C-0.310785 8.92467 0.0292149 6.50467 1.24921 4.43467C2.46921 2.36467 4.41921 0.894672 6.74921 0.284672C11.3092 -0.885328 15.9592 1.65467 17.4992 6.00467H18.0192C20.2192 6.00467 22.2292 7.20467 23.2792 9.13467C24.8592 12.0347 23.7892 15.6947 20.8792 17.2747C20.7392 17.3547 20.5692 17.3947 20.4092 17.3947Z" fill="#000000"/>
<path d="M16.0189 15.0045C15.7589 15.0045 15.5089 14.9045 15.3089 14.7145L12.0189 11.4245L8.72887 14.7045C8.33887 15.0945 7.70887 15.0945 7.31887 14.7045C6.92887 14.3145 6.92887 13.6845 7.31887 13.2945L11.3189 9.29445C11.7089 8.90445 12.3389 8.90445 12.7289 9.29445L16.7289 13.2945C17.1189 13.6845 17.1189 14.3145 16.7289 14.7045C16.5289 14.9045 16.2689 15.0045 16.0189 15.0045Z" fill="#000000"/>
</svg>
